<svg width="637" height="472" viewBox="0 0 637 472" fill="none" xmlns="http://www.w3.org/2000/svg">
<rect width="637" height="472" fill="white"/>
<g filter="url(#filter0_d)">
<path fill-rule="evenodd" clip-rule="evenodd" d="M298.172 342.437L273 331L278.954 358L286.228 347.336L298.172 342.437Z" fill="#FF8D4E"/>
<path d="M298.641 343.581L301.289 342.495L298.684 341.311L273.511 329.874L271.26 328.851L271.793 331.266L277.746 358.266L278.362 361.061L279.975 358.697L287.041 348.339L298.641 343.581Z" stroke="white" stroke-opacity="0.8" stroke-width="2.47297"/>
</g>
<g filter="url(#filter1_d)">
<rect x="301" y="364" width="131" height="34" fill="#FF8D4E"/>
</g>
<path d="M314.909 388.193C316.445 388.193 317.724 387.527 318.422 386.346H318.604V388H320.828V380.019C320.828 377.569 319.174 376.108 316.241 376.108C313.588 376.108 311.697 377.387 311.461 379.353H313.695C313.953 378.504 314.845 378.021 316.134 378.021C317.713 378.021 318.529 378.74 318.529 380.019V381.039L315.36 381.232C312.578 381.404 311.01 382.618 311.01 384.713C311.01 386.84 312.653 388.193 314.909 388.193ZM315.5 386.335C314.243 386.335 313.33 385.701 313.33 384.616C313.33 383.553 314.061 382.983 315.672 382.876L318.529 382.683V383.692C318.529 385.196 317.24 386.335 315.5 386.335ZM324.003 388H326.312V371.758H324.003V388ZM339.466 376.334H337.017L334.117 385.637H333.934L331.023 376.334H328.552L332.774 388H335.255L339.466 376.334ZM342.78 374.25C343.586 374.25 344.241 373.595 344.241 372.8C344.241 371.994 343.586 371.339 342.78 371.339C341.975 371.339 341.319 371.994 341.319 372.8C341.319 373.595 341.975 374.25 342.78 374.25ZM341.631 388H343.93V376.334H341.631V388ZM347.104 388H349.414V381.157C349.414 379.277 350.499 378.117 352.207 378.117C353.915 378.117 354.731 379.062 354.731 380.996V388H357.041V380.448C357.041 377.666 355.601 376.108 352.991 376.108C351.229 376.108 350.069 376.893 349.5 378.182H349.328V376.334H347.104V388ZM365.979 388H368.288V371.758H365.979V388ZM379.208 384.874C378.778 385.819 377.822 386.335 376.426 386.335C374.578 386.335 373.386 385.003 373.311 382.887V382.779H381.571V381.984C381.571 378.332 379.606 376.108 376.351 376.108C373.053 376.108 370.958 378.482 370.958 382.188C370.958 385.916 373.01 388.226 376.361 388.226C379.036 388.226 380.927 386.937 381.432 384.874H379.208ZM376.34 377.988C378.048 377.988 379.165 379.224 379.219 381.114H373.311C373.439 379.234 374.632 377.988 376.34 377.988ZM393.984 376.334H391.675V383.177C391.675 385.057 390.654 386.195 388.785 386.195C387.088 386.195 386.325 385.271 386.325 383.338V376.334H384.015V383.907C384.015 386.646 385.455 388.226 388.044 388.226C389.816 388.226 391.009 387.474 391.578 386.152H391.761V388H393.984V376.334ZM397.116 388H399.425V381.157C399.425 379.277 400.51 378.117 402.218 378.117C403.926 378.117 404.743 379.062 404.743 380.996V388H407.052V380.448C407.052 377.666 405.613 376.108 403.002 376.108C401.241 376.108 400.081 376.893 399.511 378.182H399.339V376.334H397.116V388ZM415.018 392.458C418.326 392.458 420.421 390.771 420.421 388.118V376.334H418.208V378.192H418.026C417.37 376.925 415.963 376.13 414.352 376.13C411.365 376.13 409.496 378.482 409.496 382.017C409.496 385.519 411.344 387.828 414.33 387.828C415.942 387.828 417.231 387.13 417.94 385.862H418.112V388.107C418.112 389.687 416.973 390.632 415.05 390.632C413.492 390.632 412.515 390.073 412.321 389.192H409.958C410.205 391.158 412.096 392.458 415.018 392.458ZM414.986 385.916C412.998 385.916 411.881 384.401 411.881 382.017C411.881 379.632 412.998 378.106 414.986 378.106C416.951 378.106 418.154 379.632 418.154 382.017C418.154 384.401 416.962 385.916 414.986 385.916Z" fill="white"/>
<g filter="url(#filter2_d)">
<path fill-rule="evenodd" clip-rule="evenodd" d="M183.172 84.4371L158 73L163.954 100L171.228 89.3358L183.172 84.4371Z" fill="#2D9CDB"/>
<path d="M183.641 85.5811L186.289 84.4952L183.684 83.3114L158.511 71.8743L156.26 70.8513L156.793 73.2663L162.746 100.266L163.362 103.061L164.975 100.697L172.041 90.339L183.641 85.5811Z" stroke="white" stroke-opacity="0.8" stroke-width="2.47297"/>
</g>
<g filter="url(#filter3_d)">
<rect x="186" y="106" width="112" height="34" fill="#2D9CDB"/>
</g>
<path d="M195.881 126.068C195.881 128.668 197.804 130.376 200.607 130.376C203.594 130.376 205.398 128.604 205.398 125.521V114.499H202.992V125.51C202.992 127.282 202.122 128.228 200.586 128.228C199.211 128.228 198.276 127.357 198.244 126.068H195.881ZM216.35 126.874C215.921 127.819 214.965 128.335 213.568 128.335C211.72 128.335 210.528 127.003 210.453 124.887V124.779H218.714V123.984C218.714 120.332 216.748 118.108 213.493 118.108C210.195 118.108 208.1 120.482 208.1 124.188C208.1 127.916 210.152 130.226 213.504 130.226C216.178 130.226 218.069 128.937 218.574 126.874H216.35ZM213.482 119.988C215.19 119.988 216.307 121.224 216.361 123.114H210.453C210.582 121.234 211.774 119.988 213.482 119.988ZM220.997 121.6C220.997 123.329 222.028 124.317 224.251 124.833L226.292 125.316C227.463 125.596 228.011 126.068 228.011 126.799C228.011 127.755 226.991 128.421 225.551 128.421C224.155 128.421 223.295 127.852 223.005 126.938H220.696C220.9 128.969 222.715 130.226 225.497 130.226C228.29 130.226 230.342 128.754 230.342 126.584C230.342 124.887 229.3 123.931 227.077 123.415L225.132 122.964C223.865 122.663 223.274 122.212 223.274 121.492C223.274 120.547 224.251 119.913 225.54 119.913C226.851 119.913 227.689 120.482 227.904 121.353H230.117C229.891 119.333 228.172 118.108 225.54 118.108C222.898 118.108 220.997 119.569 220.997 121.6ZM232.421 121.6C232.421 123.329 233.452 124.317 235.676 124.833L237.717 125.316C238.888 125.596 239.436 126.068 239.436 126.799C239.436 127.755 238.415 128.421 236.976 128.421C235.579 128.421 234.72 127.852 234.43 126.938H232.12C232.324 128.969 234.14 130.226 236.922 130.226C239.715 130.226 241.767 128.754 241.767 126.584C241.767 124.887 240.725 123.931 238.501 123.415L236.557 122.964C235.289 122.663 234.698 122.212 234.698 121.492C234.698 120.547 235.676 119.913 236.965 119.913C238.276 119.913 239.113 120.482 239.328 121.353H241.541C241.316 119.333 239.597 118.108 236.965 118.108C234.322 118.108 232.421 119.569 232.421 121.6ZM245.521 116.25C246.327 116.25 246.982 115.595 246.982 114.8C246.982 113.994 246.327 113.339 245.521 113.339C244.716 113.339 244.06 113.994 244.06 114.8C244.06 115.595 244.716 116.25 245.521 116.25ZM244.372 130H246.671V118.334H244.372V130ZM257.515 126.874C257.086 127.819 256.129 128.335 254.733 128.335C252.885 128.335 251.693 127.003 251.618 124.887V124.779H259.879V123.984C259.879 120.332 257.913 118.108 254.658 118.108C251.36 118.108 249.265 120.482 249.265 124.188C249.265 127.916 251.317 130.226 254.669 130.226C257.343 130.226 259.234 128.937 259.739 126.874H257.515ZM254.647 119.988C256.355 119.988 257.472 121.224 257.526 123.114H251.618C251.747 121.234 252.939 119.988 254.647 119.988ZM278.162 127.905H270.9V114.499H268.494V130H278.162V127.905ZM281.917 116.25C282.722 116.25 283.378 115.595 283.378 114.8C283.378 113.994 282.722 113.339 281.917 113.339C281.111 113.339 280.456 113.994 280.456 114.8C280.456 115.595 281.111 116.25 281.917 116.25ZM280.767 130H283.066V118.334H280.767V130Z" fill="white"/>
<g filter="url(#filter4_d)">
<path fill-rule="evenodd" clip-rule="evenodd" d="M92.1722 226.437L67 215L72.9536 242L80.2284 231.336L92.1722 226.437Z" fill="#27AE60"/>
<path d="M92.6414 227.581L95.2891 226.495L92.6836 225.311L67.5115 213.874L65.26 212.851L65.7925 215.266L71.7461 242.266L72.3623 245.061L73.975 242.697L81.0409 232.339L92.6414 227.581Z" stroke="white" stroke-opacity="0.8" stroke-width="2.47297"/>
</g>
<g filter="url(#filter5_d)">
<rect x="95" y="248" width="58" height="34" fill="#27AE60"/>
</g>
<path d="M104.881 268.068C104.881 270.668 106.804 272.376 109.607 272.376C112.594 272.376 114.398 270.604 114.398 267.521V256.499H111.992V267.51C111.992 269.282 111.122 270.228 109.586 270.228C108.211 270.228 107.276 269.357 107.244 268.068H104.881ZM125.35 268.874C124.921 269.819 123.965 270.335 122.568 270.335C120.72 270.335 119.528 269.003 119.453 266.887V266.779H127.714V265.984C127.714 262.332 125.748 260.108 122.493 260.108C119.195 260.108 117.1 262.482 117.1 266.188C117.1 269.916 119.152 272.226 122.504 272.226C125.178 272.226 127.069 270.937 127.574 268.874H125.35ZM122.482 261.988C124.19 261.988 125.307 263.224 125.361 265.114H119.453C119.582 263.234 120.774 261.988 122.482 261.988ZM130.265 272H132.575V265.157C132.575 263.277 133.66 262.117 135.368 262.117C137.076 262.117 137.892 263.062 137.892 264.996V272H140.202V264.448C140.202 261.666 138.762 260.108 136.152 260.108C134.39 260.108 133.23 260.893 132.661 262.182H132.489V260.334H130.265V272Z" fill="white"/>
<g filter="url(#filter6_d)">
<path fill-rule="evenodd" clip-rule="evenodd" d="M354.172 165.437L329 154L334.954 181L342.228 170.336L354.172 165.437Z" fill="#9B51E0"/>
<path d="M354.641 166.581L357.289 165.495L354.684 164.311L329.511 152.874L327.26 151.851L327.793 154.266L333.746 181.266L334.362 184.061L335.975 181.697L343.041 171.339L354.641 166.581Z" stroke="white" stroke-opacity="0.8" stroke-width="2.47297"/>
</g>
<g filter="url(#filter7_d)">
<rect x="357" y="187" width="159" height="34" fill="#9B51E0"/>
</g>
<path d="M383.628 211V195.499H380.813L375.872 207.627H375.689L370.759 195.499H367.944V211H370.179V199.646H370.329L374.873 210.721H376.699L381.243 199.646H381.394V211H383.628ZM390.261 211.193C391.798 211.193 393.076 210.527 393.774 209.346H393.957V211H396.18V203.019C396.18 200.569 394.526 199.108 391.593 199.108C388.94 199.108 387.05 200.387 386.813 202.353H389.048C389.305 201.504 390.197 201.021 391.486 201.021C393.065 201.021 393.882 201.74 393.882 203.019V204.039L390.713 204.232C387.93 204.404 386.362 205.618 386.362 207.713C386.362 209.84 388.006 211.193 390.261 211.193ZM390.852 209.335C389.595 209.335 388.682 208.701 388.682 207.616C388.682 206.553 389.413 205.983 391.024 205.876L393.882 205.683V206.692C393.882 208.196 392.593 209.335 390.852 209.335ZM400.064 196.391V199.366H398.206V201.214H400.064V207.928C400.064 210.173 401.084 211.075 403.652 211.075C404.103 211.075 404.533 211.021 404.909 210.957V209.12C404.586 209.152 404.382 209.174 404.028 209.174C402.878 209.174 402.373 208.626 402.373 207.369V201.214H404.909V199.366H402.373V196.391H400.064ZM408.266 196.391V199.366H406.407V201.214H408.266V207.928C408.266 210.173 409.286 211.075 411.854 211.075C412.305 211.075 412.735 211.021 413.111 210.957V209.12C412.788 209.152 412.584 209.174 412.23 209.174C411.08 209.174 410.575 208.626 410.575 207.369V201.214H413.111V199.366H410.575V196.391H408.266ZM416.801 197.25C417.606 197.25 418.262 196.595 418.262 195.8C418.262 194.994 417.606 194.339 416.801 194.339C415.995 194.339 415.34 194.994 415.34 195.8C415.34 196.595 415.995 197.25 416.801 197.25ZM415.651 211H417.95V199.334H415.651V211ZM424.358 211.193C425.894 211.193 427.172 210.527 427.871 209.346H428.053V211H430.277V203.019C430.277 200.569 428.623 199.108 425.69 199.108C423.037 199.108 421.146 200.387 420.91 202.353H423.144C423.402 201.504 424.294 201.021 425.583 201.021C427.162 201.021 427.978 201.74 427.978 203.019V204.039L424.809 204.232C422.027 204.404 420.459 205.618 420.459 207.713C420.459 209.84 422.102 211.193 424.358 211.193ZM424.949 209.335C423.692 209.335 422.779 208.701 422.779 207.616C422.779 206.553 423.509 205.983 425.121 205.876L427.978 205.683V206.692C427.978 208.196 426.689 209.335 424.949 209.335ZM433.076 202.6C433.076 204.329 434.107 205.317 436.33 205.833L438.371 206.316C439.542 206.596 440.09 207.068 440.09 207.799C440.09 208.755 439.07 209.421 437.63 209.421C436.234 209.421 435.374 208.852 435.084 207.938H432.775C432.979 209.969 434.794 211.226 437.576 211.226C440.369 211.226 442.421 209.754 442.421 207.584C442.421 205.887 441.379 204.931 439.156 204.415L437.211 203.964C435.944 203.663 435.353 203.212 435.353 202.492C435.353 201.547 436.33 200.913 437.619 200.913C438.93 200.913 439.768 201.482 439.983 202.353H442.196C441.97 200.333 440.251 199.108 437.619 199.108C434.977 199.108 433.076 200.569 433.076 202.6ZM463.809 211V195.499H461.414V202.052H453.454V195.499H451.048V211H453.454V204.136H461.414V211H463.809ZM470.443 211.193C471.979 211.193 473.257 210.527 473.956 209.346H474.138V211H476.362V203.019C476.362 200.569 474.707 199.108 471.775 199.108C469.122 199.108 467.231 200.387 466.995 202.353H469.229C469.487 201.504 470.378 201.021 471.667 201.021C473.247 201.021 474.063 201.74 474.063 203.019V204.039L470.894 204.232C468.112 204.404 466.543 205.618 466.543 207.713C466.543 209.84 468.187 211.193 470.443 211.193ZM471.034 209.335C469.777 209.335 468.864 208.701 468.864 207.616C468.864 206.553 469.594 205.983 471.206 205.876L474.063 205.683V206.692C474.063 208.196 472.774 209.335 471.034 209.335ZM479.536 211H481.846V194.758H479.536V211ZM485.203 211H487.513V194.758H485.203V211ZM491.955 197.25C492.76 197.25 493.416 196.595 493.416 195.8C493.416 194.994 492.76 194.339 491.955 194.339C491.149 194.339 490.494 194.994 490.494 195.8C490.494 196.595 491.149 197.25 491.955 197.25ZM490.805 211H493.104V199.334H490.805V211ZM496.279 211H498.588V204.157C498.588 202.277 499.673 201.117 501.381 201.117C503.089 201.117 503.906 202.062 503.906 203.996V211H506.215V203.448C506.215 200.666 504.776 199.108 502.165 199.108C500.404 199.108 499.244 199.893 498.674 201.182H498.502V199.334H496.279V211Z" fill="white"/>
<defs>
<filter id="filter0_d" x="266.037" y="325.692" width="41.8537" height="44.3869" filterUnits="userSpaceOnUse" color-interpolation-filters="sRGB">
<feFlood flood-opacity="0" result="BackgroundImageFix"/>
<feColorMatrix in="SourceAlpha" type="matrix" values="0 0 0 0 0 0 0 0 0 0 0 0 0 0 0 0 0 0 127 0"/>
<feOffset dy="2.47297"/>
<feGaussianBlur stdDeviation="1.74194"/>
<feColorMatrix type="matrix" values="0 0 0 0 0 0 0 0 0 0 0 0 0 0 0 0 0 0 0.29 0"/>
<feBlend mode="normal" in2="BackgroundImageFix" result="effect1_dropShadow"/>
<feBlend mode="normal" in="SourceGraphic" in2="effect1_dropShadow" result="shape"/>
</filter>
<filter id="filter1_d" x="294" y="358" width="145" height="48" filterUnits="userSpaceOnUse" color-interpolation-filters="sRGB">
<feFlood flood-opacity="0" result="BackgroundImageFix"/>
<feColorMatrix in="SourceAlpha" type="matrix" values="0 0 0 0 0 0 0 0 0 0 0 0 0 0 0 0 0 0 127 0"/>
<feOffset dy="1"/>
<feGaussianBlur stdDeviation="3.5"/>
<feColorMatrix type="matrix" values="0 0 0 0 0 0 0 0 0 0 0 0 0 0 0 0 0 0 0.18 0"/>
<feBlend mode="normal" in2="BackgroundImageFix" result="effect1_dropShadow"/>
<feBlend mode="normal" in="SourceGraphic" in2="effect1_dropShadow" result="shape"/>
</filter>
<filter id="filter2_d" x="151.037" y="67.6922" width="41.8537" height="44.3869" filterUnits="userSpaceOnUse" color-interpolation-filters="sRGB">
<feFlood flood-opacity="0" result="BackgroundImageFix"/>
<feColorMatrix in="SourceAlpha" type="matrix" values="0 0 0 0 0 0 0 0 0 0 0 0 0 0 0 0 0 0 127 0"/>
<feOffset dy="2.47297"/>
<feGaussianBlur stdDeviation="1.74194"/>
<feColorMatrix type="matrix" values="0 0 0 0 0 0 0 0 0 0 0 0 0 0 0 0 0 0 0.29 0"/>
<feBlend mode="normal" in2="BackgroundImageFix" result="effect1_dropShadow"/>
<feBlend mode="normal" in="SourceGraphic" in2="effect1_dropShadow" result="shape"/>
</filter>
<filter id="filter3_d" x="179" y="100" width="126" height="48" filterUnits="userSpaceOnUse" color-interpolation-filters="sRGB">
<feFlood flood-opacity="0" result="BackgroundImageFix"/>
<feColorMatrix in="SourceAlpha" type="matrix" values="0 0 0 0 0 0 0 0 0 0 0 0 0 0 0 0 0 0 127 0"/>
<feOffset dy="1"/>
<feGaussianBlur stdDeviation="3.5"/>
<feColorMatrix type="matrix" values="0 0 0 0 0 0 0 0 0 0 0 0 0 0 0 0 0 0 0.18 0"/>
<feBlend mode="normal" in2="BackgroundImageFix" result="effect1_dropShadow"/>
<feBlend mode="normal" in="SourceGraphic" in2="effect1_dropShadow" result="shape"/>
</filter>
<filter id="filter4_d" x="60.0366" y="209.692" width="41.8537" height="44.3869" filterUnits="userSpaceOnUse" color-interpolation-filters="sRGB">
<feFlood flood-opacity="0" result="BackgroundImageFix"/>
<feColorMatrix in="SourceAlpha" type="matrix" values="0 0 0 0 0 0 0 0 0 0 0 0 0 0 0 0 0 0 127 0"/>
<feOffset dy="2.47297"/>
<feGaussianBlur stdDeviation="1.74194"/>
<feColorMatrix type="matrix" values="0 0 0 0 0 0 0 0 0 0 0 0 0 0 0 0 0 0 0.29 0"/>
<feBlend mode="normal" in2="BackgroundImageFix" result="effect1_dropShadow"/>
<feBlend mode="normal" in="SourceGraphic" in2="effect1_dropShadow" result="shape"/>
</filter>
<filter id="filter5_d" x="88" y="242" width="72" height="48" filterUnits="userSpaceOnUse" color-interpolation-filters="sRGB">
<feFlood flood-opacity="0" result="BackgroundImageFix"/>
<feColorMatrix in="SourceAlpha" type="matrix" values="0 0 0 0 0 0 0 0 0 0 0 0 0 0 0 0 0 0 127 0"/>
<feOffset dy="1"/>
<feGaussianBlur stdDeviation="3.5"/>
<feColorMatrix type="matrix" values="0 0 0 0 0 0 0 0 0 0 0 0 0 0 0 0 0 0 0.18 0"/>
<feBlend mode="normal" in2="BackgroundImageFix" result="effect1_dropShadow"/>
<feBlend mode="normal" in="SourceGraphic" in2="effect1_dropShadow" result="shape"/>
</filter>
<filter id="filter6_d" x="322.037" y="148.692" width="41.8537" height="44.3869" filterUnits="userSpaceOnUse" color-interpolation-filters="sRGB">
<feFlood flood-opacity="0" result="BackgroundImageFix"/>
<feColorMatrix in="SourceAlpha" type="matrix" values="0 0 0 0 0 0 0 0 0 0 0 0 0 0 0 0 0 0 127 0"/>
<feOffset dy="2.47297"/>
<feGaussianBlur stdDeviation="1.74194"/>
<feColorMatrix type="matrix" values="0 0 0 0 0 0 0 0 0 0 0 0 0 0 0 0 0 0 0.29 0"/>
<feBlend mode="normal" in2="BackgroundImageFix" result="effect1_dropShadow"/>
<feBlend mode="normal" in="SourceGraphic" in2="effect1_dropShadow" result="shape"/>
</filter>
<filter id="filter7_d" x="350" y="181" width="173" height="48" filterUnits="userSpaceOnUse" color-interpolation-filters="sRGB">
<feFlood flood-opacity="0" result="BackgroundImageFix"/>
<feColorMatrix in="SourceAlpha" type="matrix" values="0 0 0 0 0 0 0 0 0 0 0 0 0 0 0 0 0 0 127 0"/>
<feOffset dy="1"/>
<feGaussianBlur stdDeviation="3.5"/>
<feColorMatrix type="matrix" values="0 0 0 0 0 0 0 0 0 0 0 0 0 0 0 0 0 0 0.18 0"/>
<feBlend mode="normal" in2="BackgroundImageFix" result="effect1_dropShadow"/>
<feBlend mode="normal" in="SourceGraphic" in2="effect1_dropShadow" result="shape"/>
</filter>
</defs>
</svg>
